<svg width="800" height="520" viewBox="0 0 800 520" fill="none" xmlns="http://www.w3.org/2000/svg">
  <defs>
    <linearGradient id="bg" x1="0" y1="0" x2="800" y2="520" gradientUnits="userSpaceOnUse">
      <stop stop-color="#F6E7CD"/>
      <stop offset="1" stop-color="#E8C89B"/>
    </linearGradient>
    <radialGradient id="glow" cx="0" cy="0" r="1" gradientUnits="userSpaceOnUse" gradientTransform="translate(570 170) rotate(130) scale(280 260)">
      <stop stop-color="#FFF9ED" stop-opacity="0.9"/>
      <stop offset="1" stop-color="#FFF9ED" stop-opacity="0"/>
    </radialGradient>
  </defs>
  <rect width="800" height="520" rx="24" fill="url(#bg)"/>
  <rect width="800" height="520" rx="24" fill="url(#glow)"/>
  <path d="M130 390C180 320 230 305 290 320C350 335 370 390 430 402C510 418 570 370 670 300" stroke="#7D6A5A" stroke-opacity="0.45" stroke-width="6" stroke-linecap="round"/>
  <path d="M120 430C190 360 270 356 340 378C410 400 470 442 550 430C620 420 675 380 720 340" stroke="#3B393C" stroke-opacity="0.35" stroke-width="4" stroke-linecap="round"/>
  <circle cx="166" cy="130" r="12" fill="#7D6A5A" fill-opacity="0.45"/>
  <circle cx="204" cy="96" r="9" fill="#3B393C" fill-opacity="0.35"/>
  <circle cx="234" cy="136" r="7" fill="#7D6A5A" fill-opacity="0.35"/>
  <circle cx="596" cy="92" r="18" fill="#7D6A5A" fill-opacity="0.22"/>
  <circle cx="640" cy="112" r="9" fill="#3B393C" fill-opacity="0.18"/>
</svg>
